HIERARCHY
ROOT Hips
{
    OFFSET   0.000000   0.000000   0.000000
    CHANNELS 6 Xposition Yposition Zposition Zrotation Xrotation Yrotation
    JOINT Chest
    {
        OFFSET   0.000000   8.007240   0.000000
        CHANNELS 3 Zrotation Xrotation Yrotation
        JOINT Chest2
        {
            OFFSET   0.000000  22.077100   0.000000
            CHANNELS 3 Zrotation Xrotation Yrotation
            JOINT Neck
            {
                OFFSET   0.000000  23.254800   0.000000
                CHANNELS 3 Zrotation Xrotation Yrotation
                JOINT Head
                {
                    OFFSET   0.000000  14.370000   1.956600
                    CHANNELS 3 Zrotation Xrotation Yrotation
                    End Site
                    {
                        OFFSET   0.000000  19.566000   0.000000
                    }
                }
            }
            JOINT LeftCollar
            {
                OFFSET   3.911900  19.017000  -0.467064
                CHANNELS 3 Zrotation Xrotation Yrotation
                JOINT LeftShoulder
                {
                    OFFSET  10.383700   0.000000   0.000000
                    CHANNELS 3 Zrotation Xrotation Yrotation
                    JOINT LeftElbow
                    {
                        OFFSET  26.662100   0.001476   0.000517
                        CHANNELS 3 Zrotation Xrotation Yrotation
                        JOINT LeftWrist
                        {
                            OFFSET  28.869000  -0.000025  -0.000106
                            CHANNELS 3 Zrotation Xrotation Yrotation
                            JOINT LeftFinger0
                            {
                                OFFSET   2.044660  -2.323460   3.252850
                                CHANNELS 3 Zrotation Xrotation Yrotation
                                JOINT LeftFinger01
                                {
                                    OFFSET   3.088130   0.000000   0.000000
                                    CHANNELS 3 Zrotation Xrotation Yrotation
                                    JOINT LeftFinger02
                                    {
                                        OFFSET   2.639460   0.000000   0.000000
                                        CHANNELS 3 Zrotation Xrotation Yrotation
                                        End Site
                                        {
                                            OFFSET   2.582190   0.000000   0.000000
                                        }
                                    }
                                }
                            }
                            JOINT LeftFinger1
                            {
                                OFFSET   8.364480   0.000000   3.252850
                                CHANNELS 3 Zrotation Xrotation Yrotation
                                JOINT LeftFinger11
                                {
                                    OFFSET   4.646930   0.000000   0.000000
                                    CHANNELS 3 Zrotation Xrotation Yrotation
                                    JOINT LeftFinger12
                                    {
                                        OFFSET   2.323460   0.000000   0.000000
                                        CHANNELS 3 Zrotation Xrotation Yrotation
                                        End Site
                                        {
                                            OFFSET   2.273050   0.000000   0.000000
                                        }
                                    }
                                }
                            }
                            JOINT LeftFinger2
                            {
                                OFFSET   8.364490   0.000015   1.078090
                                CHANNELS 3 Zrotation Xrotation Yrotation
                                JOINT LeftFinger21
                                {
                                    OFFSET   5.111620   0.000000   0.000000
                                    CHANNELS 3 Zrotation Xrotation Yrotation
                                    JOINT LeftFinger22
                                    {
                                        OFFSET   2.788160   0.000016   0.000000
                                        CHANNELS 3 Zrotation Xrotation Yrotation
                                        End Site
                                        {
                                            OFFSET   2.727660   0.000000   0.000000
                                        }
                                    }
                                }
                            }
                            JOINT LeftFinger3
                            {
                                OFFSET   7.899780   0.000017  -1.078090
                                CHANNELS 3 Zrotation Xrotation Yrotation
                                JOINT LeftFinger31
                                {
                                    OFFSET   4.646930   0.000000   0.000000
                                    CHANNELS 3 Zrotation Xrotation Yrotation
                                    JOINT LeftFinger32
                                    {
                                        OFFSET   2.323470   0.000000   0.000000
                                        CHANNELS 3 Zrotation Xrotation Yrotation
                                        End Site
                                        {
                                            OFFSET   2.273050   0.000000   0.000000
                                        }
                                    }
                                }
                            }
                            JOINT LeftFinger4
                            {
                                OFFSET   7.435090   0.000000  -3.252850
                                CHANNELS 3 Zrotation Xrotation Yrotation
                                JOINT LeftFinger41
                                {
                                    OFFSET   3.717550   0.000000   0.000000
                                    CHANNELS 3 Zrotation Xrotation Yrotation
                                    JOINT LeftFinger42
                                    {
                                        OFFSET   1.858770   0.000000   0.000000
                                        CHANNELS 3 Zrotation Xrotation Yrotation
                                        End Site
                                        {
                                            OFFSET   1.818440   0.000000   0.000000
                                        }
                                    }
                                }
                            }
                        }
                    }
                }
            }
            JOINT RightCollar
            {
                OFFSET  -3.911900  19.017000  -0.467063
                CHANNELS 3 Zrotation Xrotation Yrotation
                JOINT RightShoulder
                {
                    OFFSET -10.383700   0.000019   0.000000
                    CHANNELS 3 Zrotation Xrotation Yrotation
                    JOINT RightElbow
                    {
                        OFFSET -26.662100   0.001175   0.000102
                        CHANNELS 3 Zrotation Xrotation Yrotation
                        JOINT RightWrist
                        {
                            OFFSET -28.869000   0.000016  -0.000079
                            CHANNELS 3 Zrotation Xrotation Yrotation
                            JOINT RightFinger0
                            {
                                OFFSET  -2.044660  -2.323490   3.252850
                                CHANNELS 3 Zrotation Xrotation Yrotation
                                JOINT RightFinger01
                                {
                                    OFFSET  -3.088140   0.000000   0.000000
                                    CHANNELS 3 Zrotation Xrotation Yrotation
                                    JOINT RightFinger02
                                    {
                                        OFFSET  -2.639460   0.000000   0.000000
                                        CHANNELS 3 Zrotation Xrotation Yrotation
                                        End Site
                                        {
                                            OFFSET  -2.582190   0.000000   0.000000
                                        }
                                    }
                                }
                            }
                            JOINT RightFinger1
                            {
                                OFFSET  -8.364480   0.000000   3.252850
                                CHANNELS 3 Zrotation Xrotation Yrotation
                                JOINT RightFinger11
                                {
                                    OFFSET  -4.646930   0.000000   0.000000
                                    CHANNELS 3 Zrotation Xrotation Yrotation
                                    JOINT RightFinger12
                                    {
                                        OFFSET  -2.323470   0.000000   0.000000
                                        CHANNELS 3 Zrotation Xrotation Yrotation
                                        End Site
                                        {
                                            OFFSET  -2.273050   0.000000   0.000000
                                        }
                                    }
                                }
                            }
                            JOINT RightFinger2
                            {
                                OFFSET  -8.364480   0.000000   1.078090
                                CHANNELS 3 Zrotation Xrotation Yrotation
                                JOINT RightFinger21
                                {
                                    OFFSET  -5.111620   0.000000   0.000000
                                    CHANNELS 3 Zrotation Xrotation Yrotation
                                    JOINT RightFinger22
                                    {
                                        OFFSET  -2.788160   0.000000   0.000000
                                        CHANNELS 3 Zrotation Xrotation Yrotation
                                        End Site
                                        {
                                            OFFSET  -2.727660   0.000000   0.000000
                                        }
                                    }
                                }
                            }
                            JOINT RightFinger3
                            {
                                OFFSET  -7.899780   0.000000  -1.078090
                                CHANNELS 3 Zrotation Xrotation Yrotation
                                JOINT RightFinger31
                                {
                                    OFFSET  -4.646930   0.000000   0.000000
                                    CHANNELS 3 Zrotation Xrotation Yrotation
                                    JOINT RightFinger32
                                    {
                                        OFFSET  -2.323470   0.000000   0.000000
                                        CHANNELS 3 Zrotation Xrotation Yrotation
                                        End Site
                                        {
                                            OFFSET  -2.273050   0.000000   0.000000
                                        }
                                    }
                                }
                            }
                            JOINT RightFinger4
                            {
                                OFFSET  -7.435090   0.000000  -3.252850
                                CHANNELS 3 Zrotation Xrotation Yrotation
                                JOINT RightFinger41
                                {
                                    OFFSET  -3.717550   0.000000   0.000000
                                    CHANNELS 3 Zrotation Xrotation Yrotation
                                    JOINT RightFinger42
                                    {
                                        OFFSET  -1.858770   0.000000   0.000000
                                        CHANNELS 3 Zrotation Xrotation Yrotation
                                        End Site
                                        {
                                            OFFSET  -1.818440   0.000000   0.000000
                                        }
                                    }
                                }
                            }
                        }
                    }
                }
            }
        }
    }
    JOINT LeftHip
    {
        OFFSET   9.783040   0.000000   0.000000
        CHANNELS 3 Zrotation Xrotation Yrotation
        JOINT LeftKnee
        {
            OFFSET   0.000032 -41.789100  -0.002222
            CHANNELS 3 Zrotation Xrotation Yrotation
            JOINT LeftAnkle
            {
                OFFSET   0.000087 -41.133200  -0.000135
                CHANNELS 3 Zrotation Xrotation Yrotation
                JOINT LeftToe
                {
                    OFFSET   0.000000  -6.358960  14.674500
                    CHANNELS 3 Zrotation Xrotation Yrotation
                    End Site
                    {
                        OFFSET   0.000000   0.000000   3.913200
                    }
                }
            }
        }
    }
    JOINT RightHip
    {
        OFFSET  -9.783040   0.000000   0.000000
        CHANNELS 3 Zrotation Xrotation Yrotation
        JOINT RightKnee
        {
            OFFSET   0.000047 -41.789100  -0.000896
            CHANNELS 3 Zrotation Xrotation Yrotation
            JOINT RightAnkle
            {
                OFFSET  -0.000117 -41.133300  -0.000248
                CHANNELS 3 Zrotation Xrotation Yrotation
                JOINT RightToe
                {
                    OFFSET   0.000000  -6.358970  14.674500
                    CHANNELS 3 Zrotation Xrotation Yrotation
                    End Site
                    {
                        OFFSET   0.000000   0.000000   3.913200
                    }
                }
            }
        }
    }
}
MOTION
Frames: 6
Frame Time:   0.016667
  6.646440  88.934300  -1.781760  -7.522460 -18.509700 -19.287000  -0.640197  10.787000  -0.725109  -1.170500  21.580800  -1.362170   2.967900   8.454410  -0.436692   5.178830  17.003700 -33.447100  -4.416760   6.035350   9.444930 -75.852400  -9.121480   5.563230   3.040430  -6.961520 -69.012100  43.370000 -49.425700  13.776400  40.546400  30.368100 -49.153200 -28.731000  -0.003714  -0.002025  -9.365490  -0.000417  -0.005652 -33.804000  -0.191633   0.266888 -27.654500   0.000937   0.005479 -19.358100  -0.001884  -0.000280 -42.714400  -3.589810   3.865790 -54.435800  -0.000733  -0.001822 -38.101600  -0.003702   0.000376 -28.385900  -4.348850   7.974200 -38.809700   0.001357   0.016775 -25.847300   0.001645   0.011013 -34.711300  -7.341970  10.435300 -53.067600   0.006378   0.011233 -35.343000   0.000971   0.008953   4.948280   5.582020   6.432590  66.983800 -17.942500  -8.393950  -2.388140 -18.204600  64.326200 -55.062600 -51.609600   3.804850 -46.309500  31.393900  66.930300  12.516800  -0.006604   0.001512   1.258410  -0.004618   0.004544  25.318400  -1.517310  -3.200990  20.750100  -0.002414   0.000850  14.525100  -0.000119   0.000415  33.942900  -3.625070  -5.364420  51.169400  -0.001307   0.002265  34.078800   0.000718  -0.004980  32.999800  -5.175190  -7.906030  50.036700   0.003605   0.001026  33.324400  -0.000402  -0.002432  36.750700  -7.250340  -9.587240  56.041300   0.002168   0.002985  37.323500   0.003153  -0.004119  -1.513170  21.558800   1.584740  -1.632450   1.806920  19.006300   0.649312  -5.669970   9.128720  -0.000000   0.000000  -0.000000  -2.782970  10.856400  -2.292060  -6.241830  14.246100  -4.889540   5.232540  -4.825600  10.434900   0.000000   0.000000   0.000000
  6.760270  88.910700  -1.822220  -7.535110 -18.617600 -19.366000  -0.647716  10.825300  -0.729986  -1.184790  21.657700  -1.370300   2.835680   8.681700  -0.428229   4.955660  17.472800 -32.475500  -4.470720   5.884030   9.574170 -76.490000  -8.248400   5.942160   2.652500  -6.252910 -69.393200  42.967800 -50.546000  13.849000  40.548200  29.906500 -49.219900 -28.312600  -0.003692  -0.001947  -9.156310  -0.000263  -0.005599 -33.571800   0.167037  -0.257627 -27.467100   0.000987   0.005479 -19.226900  -0.001873  -0.000289 -42.373200  -3.593440   3.909810 -54.432700  -0.000701  -0.001854 -38.013700  -0.003676   0.000374 -28.395900  -4.196360   7.694990 -38.648400   0.001148   0.016414 -25.739800   0.001429   0.010753 -34.539500  -7.048570  10.098800 -52.742800   0.006413   0.011298 -35.126700   0.000805   0.007749   5.096080   5.476980   6.433700  67.730700 -17.043100  -8.711030  -1.930230 -17.541200  65.388500 -54.687400 -52.012200   3.890990 -46.125400  31.104900  66.648300  12.093000  -0.006409   0.001445   1.046510  -0.004492   0.004548  25.293200  -1.584830  -3.343070  20.732000  -0.002320   0.001096  14.512400  -0.000114   0.000450  33.921300  -3.622550  -5.371020  51.136800  -0.001260   0.002334  34.057100   0.000772  -0.004940  33.042200  -5.176090  -7.897540  50.099500   0.003561   0.001015  33.366200  -0.000498  -0.002451  36.723300  -7.444230  -9.834930  56.042900   0.002287   0.002943  37.324600   0.001228  -0.004149  -1.632290  21.589100   1.471910  -1.648000   1.842960  19.091900   0.689243  -5.657330   9.236030  -0.000000   0.000000   0.000000  -2.894300  10.862000  -2.248230  -6.255030  14.314300  -4.849850   5.292590  -4.792760  10.466500  -0.000000   0.000000   0.000000
  6.866850  88.887900  -1.856010  -7.548020 -18.724400 -19.443900  -0.650664  10.861600  -0.731714  -1.190070  21.730400  -1.373180   2.693640   8.907800  -0.417413   4.731340  17.940400 -31.408100  -4.515040   5.734730   9.655440 -77.066900  -7.451150   6.242910   2.254620  -5.503200 -69.707800  42.585500 -51.561700  13.833500  40.589600  29.537400 -49.298800 -27.916500  -0.003668  -0.001866  -8.958280  -0.000108  -0.005544 -33.426200   0.379036  -0.567536 -27.352400   0.001034   0.005480 -19.146700  -0.001863  -0.000296 -41.989900  -3.595590   3.959330 -54.423900  -0.000671  -0.001883 -37.906800  -0.003648   0.000372 -28.405500  -4.128390   7.569660 -38.625300   0.000945   0.013885 -25.724400   0.001211   0.008934 -34.483700  -6.883500   9.894260 -52.623900   0.006444   0.011307 -35.047500   0.000635   0.005380   5.242890   5.371390   6.434820  68.433500 -16.183700  -8.970880  -1.276860 -16.866700  66.430800 -54.337100 -52.385300   3.976240 -45.815700  30.813700  66.371300  11.681300  -0.006212   0.001382   0.840652  -0.004367   0.004549  25.268100  -1.644080  -3.485150  20.713900  -0.002224   0.001175  14.499700  -0.000109   0.000509  33.899600  -3.621860  -5.377630  51.104200  -0.001211   0.002358  34.035400   0.000863  -0.004900  33.066900  -5.176950  -7.892060  50.136200   0.003519   0.000996  33.390700  -0.000556  -0.002472  36.698500  -7.570650 -10.026400  56.044600   0.002396   0.002871  37.325700  -0.000697  -0.004180  -1.745850  21.632900   1.354790  -1.660640   1.867230  19.195200   0.733830  -5.642850   9.343660  -0.000000   0.000000   0.000000  -2.996350  10.867400  -2.222980  -6.273400  14.391100  -4.810010   5.348640  -4.765420  10.504700   0.000000   0.000000   0.000000
  6.963080  88.867600  -1.893760  -7.548620 -18.814000 -19.500600  -0.653870  10.889300  -0.711400  -1.202770  21.785400  -1.330520   2.561360   9.121790  -0.406449   4.529160  18.382200 -30.317000  -4.543300   5.576920   9.651990 -77.614200  -6.667840   6.448880   1.888950  -4.721380 -69.934200  42.420500 -52.385300  13.780400  40.360200  28.875100 -49.337100 -27.775100  -0.003656  -0.001822  -8.887580   0.000046  -0.005480 -33.311000   0.370984  -0.564057 -27.256700   0.001082   0.005480 -19.079800  -0.001870  -0.000286 -41.061400  -3.590940   4.090510 -54.384900  -0.000640  -0.001919 -37.633900  -0.003615   0.000373 -28.390900  -4.295920   7.880240 -38.792100   0.000740   0.004528 -25.835600   0.001001   0.002921 -34.583600  -7.139780  10.213900 -52.834400   0.006478   0.006494 -35.187600   0.000447   0.002043   5.419100   5.252390   6.343130  69.066500 -15.484900  -9.210300  -0.755201 -15.983000  67.410900 -53.725800 -52.773700   4.257620 -45.840200  30.844900  66.402000  10.922500  -0.006009   0.001250   0.461254  -0.004237   0.004542  25.351700  -1.598290  -3.373120  20.780400  -0.002131   0.001326  14.546300  -0.000109   0.000556  33.969300  -3.621420  -5.358110  51.208100  -0.001156   0.002410  34.104600   0.000938  -0.004857  33.180200  -5.182730  -7.865450  50.305000   0.003481   0.000980  33.503100  -0.000001  -0.002500  36.816600  -7.553000  -9.964230  56.191900   0.002491   0.002810  37.423800   0.000194  -0.004208  -1.847410  21.655000   1.266920  -1.682330   1.896300  19.231600   0.777416  -5.632860   9.453390   0.000000   0.000000   0.000000  -3.086240  10.849100  -2.222370  -6.303430  14.477400  -4.771780   5.392520  -4.745740  10.552400  -0.000000   0.000000   0.000000
  7.052450  88.849100  -1.930520  -7.539250 -18.897700 -19.531800  -0.658062  10.916900  -0.676939  -1.216020  21.840300  -1.258740   2.429930   9.320410  -0.393975   4.294160  18.793400 -29.191700  -4.599320   5.397750   9.643560 -78.050500  -5.946820   6.585600   1.565600  -3.880680 -70.076800  41.999300 -53.086700  13.467000  40.028600  28.015100 -49.220100 -27.653400  -0.003645  -0.001796  -8.826700   0.000202  -0.005414 -33.207500   0.362931  -0.560578 -27.170000   0.001130   0.005480 -19.019100  -0.001876  -0.000277 -40.090900  -3.583870   4.229490 -54.337900  -0.000613  -0.001955 -37.346000  -0.003582   0.000375 -28.367700  -4.531350   8.317910 -39.028300   0.000548  -0.002728 -25.992900   0.000799  -0.001533 -34.750800  -7.500200  10.653600 -53.176600   0.006512   0.001682 -35.415600   0.000256  -0.000366   5.601240   5.108620   6.171370  69.681300 -14.790300  -9.406330  -0.410461 -15.061500  68.290100 -52.982500 -53.077800   4.708500 -45.899600  30.914000  66.467500  10.163800  -0.005803   0.001111   0.081900  -0.004104   0.004526  25.437300  -1.534350  -3.220020  20.846900  -0.002034   0.001469  14.592800  -0.000110   0.000604  34.038900  -3.621460  -5.338590  51.312100  -0.001099   0.002459  34.173800   0.001010  -0.004812  33.260800  -5.187220  -7.846310  50.425300   0.003443   0.000967  33.583200   0.000775  -0.002529  36.904200  -7.535320  -9.902060  56.336700   0.002579   0.002750  37.520200   0.001375  -0.004234  -1.942550  21.670200   1.199990  -1.707840   1.927490  19.239100   0.820193  -5.627000   9.556440   0.000000   0.000000   0.000000  -3.168220  10.819400  -2.221680  -6.338460  14.570400  -4.737010   5.430610  -4.737120  10.581600   0.000000   0.000000   0.000000
  7.138550  88.832200  -1.965800  -7.514200 -18.978500 -19.524400  -0.652456  10.949700  -0.649940  -1.207470  21.905600  -1.204340   2.295210   9.498820  -0.379019   4.063860  19.165900 -28.038700  -4.727700   5.175960   9.586190 -78.280600  -5.365180   6.663030   1.334740  -2.901550 -70.112800  40.743600 -53.681700  12.587700  39.606800  26.760400 -48.733600 -27.400800  -0.003624  -0.001789  -8.700370   0.000362  -0.005353 -33.081000   0.387428  -0.596351 -27.067100   0.001178   0.005482 -18.947000  -0.001875  -0.000279 -39.538000  -3.580070   4.310590 -54.311500  -0.000594  -0.001983 -37.183500  -0.003557   0.000381 -28.359400  -4.634500   8.503240 -39.138700   0.000382  -0.002806 -26.066400   0.000606  -0.001333 -34.935900  -7.664530  10.810900 -53.493500   0.006551   0.001747 -35.626700   0.000075  -0.000603   5.762740   4.919640   5.985820  70.338100 -13.939800  -9.534200  -0.046938 -14.380100  69.077700 -52.159800 -53.171900   5.395900 -46.017200  31.029000  66.581500   9.635220  -0.005596   0.001018  -0.182407  -0.003968   0.004506  25.402100  -1.507600  -3.167700  20.818000  -0.001925   0.001601  14.572600  -0.000104   0.000655  34.009200  -3.623000  -5.346230  51.267900  -0.001043   0.002494  34.144400   0.001076  -0.004761  33.238800  -5.186330  -7.851350  50.392500   0.003402   0.000962  33.561400   0.001050  -0.002553  36.859700  -7.540140  -9.913710  56.277700   0.002665   0.002697  37.480900   0.001662  -0.004256  -2.036230  21.676100   1.164000  -1.726710   1.968030  19.186000   0.859407  -5.624970   9.647640  -0.000000   0.000000   0.000000  -3.243510  10.792500  -2.213870  -6.374450  14.667000  -4.709750   5.467970  -4.740400  10.569000   0.000000   0.000000  -0.000000
